<svg xmlns="http://www.w3.org/2000/svg" xmlns:xlink="http://www.w3.org/1999/xlink" width="1080" height="96" viewBox="0 0 1080 96">
  <defs>
    <filter id="Rectangle_1" x="-28.5" y="-28.5" width="1137" height="184" filterUnits="userSpaceOnUse">
      <feOffset input="SourceAlpha"/>
      <feGaussianBlur stdDeviation="9.5" result="blur"/>
      <feFlood flood-opacity="0.161"/>
      <feComposite operator="in" in2="blur"/>
      <feComposite in="SourceGraphic"/>
    </filter>
    <clipPath id="clip-Instagram_Story_6">
      <rect width="1080" height="96"/>
    </clipPath>
  </defs>
  <g id="Instagram_Story_6" data-name="Instagram Story – 6" clip-path="url(#clip-Instagram_Story_6)">
    <rect width="1080" height="96" fill="#313542"/>
    <g transform="matrix(1, 0, 0, 1, 0, 0)" filter="url(#Rectangle_1)">
      <rect id="Rectangle_1-2" data-name="Rectangle 1" width="1080" height="127" fill="#252633"/>
    </g>
    <g id="Group_72" data-name="Group 72" transform="translate(-763 -831)">
      <rect id="Rectangle_187" data-name="Rectangle 187" width="325" height="45" rx="22.5" transform="translate(826 868)" fill="#e1e1e1"/>
      <g id="Group_69" data-name="Group 69" transform="translate(816 -41)">
        <text id="View_the_GitHub_Repo" data-name="View the GitHub Repo" transform="translate(62 939)" fill="#252633" font-size="20" font-family="CenturyGothic, Century Gothic"><tspan x="0" y="0">View the GitHub Repo</tspan></text>
        <path id="exit-to-app" d="M22.872,3H5.484A2.475,2.475,0,0,0,3,5.484v4.968H5.484V5.484H22.872V22.872H5.484V17.9H3v4.968a2.484,2.484,0,0,0,2.484,2.484H22.872a2.484,2.484,0,0,0,2.484-2.484V5.484A2.483,2.483,0,0,0,22.872,3M11.793,18.624l1.764,1.764,6.21-6.21-6.21-6.21L11.793,9.719l3.217,3.217H3V15.42H15.01Z" transform="translate(291 917.322)" fill="#252633"/>
      </g>
      <path id="github" d="M13.786,2a11.794,11.794,0,0,0-3.724,22.982c.589.094.778-.271.778-.589V22.4c-3.265.707-3.96-1.579-3.96-1.579a3.171,3.171,0,0,0-1.308-1.732c-1.072-.731.082-.707.082-.707a2.478,2.478,0,0,1,1.8,1.214,2.531,2.531,0,0,0,3.43.978,2.545,2.545,0,0,1,.742-1.579c-2.616-.295-5.362-1.308-5.362-5.8A4.564,4.564,0,0,1,7.48,10,4.215,4.215,0,0,1,7.6,6.891s.99-.318,3.241,1.2a11.355,11.355,0,0,1,5.893,0c2.251-1.52,3.241-1.2,3.241-1.2A4.215,4.215,0,0,1,20.091,10,4.564,4.564,0,0,1,21.3,13.2c0,4.5-2.758,5.492-5.386,5.787a2.812,2.812,0,0,1,.813,2.18v3.229c0,.318.189.7.79.589A11.8,11.8,0,0,0,13.786,2Z" transform="translate(839 877)"/>
    </g>
  </g>
</svg>
