<svg xmlns="http://www.w3.org/2000/svg" xmlns:xlink="http://www.w3.org/1999/xlink" width="1080" height="89" viewBox="0 0 1080 89">
  <defs>
    <clipPath id="clip-Instagram_Story_8">
      <rect width="1080" height="89"/>
    </clipPath>
  </defs>
  <g id="Instagram_Story_8" data-name="Instagram Story – 8" clip-path="url(#clip-Instagram_Story_8)">
    <rect width="1080" height="89" fill="#313542"/>
    <g id="Group_78" data-name="Group 78" transform="translate(0 -7849.356)">
      <g id="gmail-svgrepo-com" transform="translate(64 7886.401)">
        <rect id="Rectangle_184" data-name="Rectangle 184" width="38" height="38" rx="19" transform="translate(0 -1.045)" fill="#fff"/>
        <path id="Path_76" data-name="Path 76" d="M82.088,201.219V190.677L76,186v12.992a1.969,1.969,0,0,0,2.227,2.227" transform="translate(-70.358 -172.725)" fill="#4285f4"/>
        <path id="Path_77" data-name="Path 77" d="M154,157.276l7.573,5.717,7.573-5.717V150l-7.573,5.717L154,150" transform="translate(-142.567 -139.397)" fill="#ea4335"/>
        <path id="Path_78" data-name="Path 78" d="M354,201.219V190.677L360.088,186v12.992a1.969,1.969,0,0,1-2.227,2.227" transform="translate(-327.719 -172.725)" fill="#34a853"/>
        <path id="Path_79" data-name="Path 79" d="M76,126.365l6.088,4.677v-7.276l-2.227-1.708c-2-1.559-3.861,0-3.861,1.93" transform="translate(-70.358 -112.942)" fill="#c5221f"/>
        <path id="Path_80" data-name="Path 80" d="M360.088,126.365,354,131.043v-7.276l2.227-1.708c2-1.559,3.861,0,3.861,1.93" transform="translate(-327.719 -112.942)" fill="#fbbc04"/>
      </g>
      <text id="markagan07_gmail.com" data-name="markagan07@gmail.com" transform="translate(120.966 7911.856)" fill="#fba547" font-size="20" font-family="CenturyGothic, Century Gothic"><tspan x="0" y="0">markagan07@gmail.com</tspan></text>
    </g>
  </g>
</svg>
