<svg xmlns="http://www.w3.org/2000/svg" xmlns:xlink="http://www.w3.org/1999/xlink" width="1080" height="89" viewBox="0 0 1080 89">
  <defs>
    <clipPath id="clip-Instagram_Story_7">
      <rect width="1080" height="89"/>
    </clipPath>
  </defs>
  <g id="Instagram_Story_7" data-name="Instagram Story – 7" clip-path="url(#clip-Instagram_Story_7)">
    <rect width="1080" height="89" fill="#313542"/>
    <g id="Group_77" data-name="Group 77" transform="translate(-1888 -3245)">
      <rect id="Rectangle_188" data-name="Rectangle 188" width="450" height="45" rx="22.5" transform="translate(2458 3281)" fill="#e1e1e1"/>
      <g id="Group_73" data-name="Group 73" transform="translate(1868 -953.333)">
        <text id="View_app_in_the_Google_Play_Store" data-name="View app in the Google Play Store" transform="translate(642 4264.678)" font-size="20" font-family="CenturyGothic, Century Gothic"><tspan x="0" y="0">View app in the Google Play Store</tspan></text>
        <path id="exit-to-app" d="M22.872,3H5.484A2.475,2.475,0,0,0,3,5.484v4.968H5.484V5.484H22.872V22.872H5.484V17.9H3v4.968a2.484,2.484,0,0,0,2.484,2.484H22.872a2.484,2.484,0,0,0,2.484-2.484V5.484A2.483,2.483,0,0,0,22.872,3M11.793,18.624l1.764,1.764,6.21-6.21-6.21-6.21L11.793,9.719l3.217,3.217H3V15.42H15.01Z" transform="translate(994.644 4243.322)"/>
      </g>
      <path id="google-play" d="M3,23.574V3.726A1.742,1.742,0,0,1,4.028,2.15l12.06,11.5L4.028,25.15A1.755,1.755,0,0,1,3,23.574m16.908-6.281L6.734,24.554l10.395-9.912,2.779,2.65m4.1-5.032a1.749,1.749,0,0,1,.722,1.389,1.688,1.688,0,0,1-.7,1.378l-2.8,1.541L18.17,13.65l3.061-2.919,2.779,1.529M6.734,2.745l13.174,7.262-2.779,2.65Z" transform="translate(2473.018 3290.195)"/>
    </g>
  </g>
</svg>
